<?xml version="1.0" encoding="UTF-8"?>
<svg version="1.1" xmlns="http://www.w3.org/2000/svg" width="3200" height="3200">
<path d="M0 0 C1056 0 2112 0 3200 0 C3200 1056 3200 2112 3200 3200 C2144 3200 1088 3200 0 3200 C0 2144 0 1088 0 0 Z " fill="#000000" transform="translate(0,0)"/>
<path d="M0 0 C2.40688675 -0.00239186 4.81377277 -0.00565833 7.22065729 -0.0097166 C12.45608516 -0.01653321 17.691476 -0.01717637 22.92690448 -0.01232711 C30.76468439 -0.0051034 38.60242938 -0.00946154 46.44020838 -0.01600846 C59.80082746 -0.02682841 73.16143244 -0.02816877 86.52205467 -0.02431011 C100.05845438 -0.02043194 113.59484358 -0.02089191 127.13124275 -0.02661991 C127.98680973 -0.02697874 128.84237671 -0.02733756 129.72386997 -0.02770726 C133.20858783 -0.0291822 136.69330569 -0.0306866 140.17802353 -0.03222873 C175.54213525 -0.04786014 210.90623976 -0.05054303 246.27035432 -0.04807267 C251.15617231 -0.04773421 256.0419903 -0.04741212 260.92780828 -0.04710698 C262.3835115 -0.04701542 262.3835115 -0.04701542 263.86862286 -0.046922 C285.38133942 -0.04564978 306.894055 -0.0482521 328.40677127 -0.05163305 C333.31984088 -0.05240379 338.23291051 -0.05314852 343.14598013 -0.05389806 C345.11782718 -0.05419976 347.08967424 -0.05450164 349.0615213 -0.05480371 C350.52764551 -0.05502822 350.52764551 -0.05502822 352.02338839 -0.05525728 C354.00044487 -0.05556081 355.97750136 -0.05586549 357.95455784 -0.05617132 C414.05357271 -0.06484451 470.15258671 -0.06948823 526.25160217 -0.06522369 C527.2903672 -0.06514564 528.32913222 -0.06506758 529.39937498 -0.06498716 C540.98252669 -0.06411437 552.5656784 -0.06318511 564.1488301 -0.06223653 C565.19460343 -0.06215102 566.24037675 -0.06206551 567.31784018 -0.06197741 C576.00689555 -0.06126665 576.00689555 -0.06126665 580.00540196 -0.06093518 C646.88255177 -0.05540056 713.75968778 -0.06293814 780.6368351 -0.08170605 C797.48510866 -0.08642837 814.33338224 -0.09110893 831.18165588 -0.09554291 C832.21910901 -0.09581623 833.25656213 -0.09608955 834.32545322 -0.09637116 C866.30861948 -0.10474456 898.29178459 -0.10942232 930.27495193 -0.11025047 C931.78151924 -0.11029002 931.78151924 -0.11029002 933.31852224 -0.11033037 C955.36878469 -0.1108712 977.41904704 -0.1104986 999.46930946 -0.10929066 C1007.35965371 -0.10886504 1015.24999797 -0.10849991 1023.14034223 -0.10816122 C1025.10321652 -0.10807591 1027.06609081 -0.10798698 1029.0289651 -0.1078944 C1060.28470243 -0.1064466 1091.54043037 -0.11356565 1122.79616544 -0.12489836 C1155.16085751 -0.13655714 1187.52553283 -0.13710256 1219.89022498 -0.12505493 C1223.36929673 -0.12380315 1226.84836849 -0.12259966 1230.32744026 -0.12143421 C1231.18124262 -0.12114392 1232.03504497 -0.12085362 1232.91472012 -0.12055453 C1246.40761271 -0.11623728 1259.90048141 -0.12194575 1273.39337025 -0.1318744 C1286.67666292 -0.14143613 1299.95991893 -0.14020373 1313.2432095 -0.12766818 C1321.01990649 -0.12064605 1328.79649773 -0.12168557 1336.57318706 -0.13501656 C1342.36495213 -0.14401478 1348.15661606 -0.13716168 1353.94837015 -0.12442699 C1356.2633264 -0.12171826 1358.57829558 -0.12393236 1360.89323958 -0.13193413 C1408.16838261 -0.28407507 1449.69303208 12.38995574 1484.38634682 45.25447559 C1485.33122963 46.13490528 1486.27611244 47.01533497 1487.24962807 47.92244434 C1499.85244613 59.90767904 1509.48261475 73.81381875 1517.38634682 89.25447559 C1517.70974037 89.8820879 1518.03313393 90.5097002 1518.36632729 91.15633106 C1528.50286797 111.09204677 1534.56736773 133.84184461 1534.51399732 156.23576069 C1534.51647348 157.71117264 1534.51647348 157.71117264 1534.51899968 159.21639089 C1534.52332245 162.52088902 1534.52052402 165.82534254 1534.51777458 169.1298418 C1534.51942432 171.5297349 1534.52151064 173.92962773 1534.52399468 176.32952011 C1534.52840243 181.56826058 1534.52969414 186.80699242 1534.52826634 192.04573417 C1534.52614453 199.88857274 1534.52975951 207.73140154 1534.53448111 215.5742386 C1534.54235431 228.94114278 1534.54544315 242.30804429 1534.54592705 255.6749506 C1534.54642934 269.22354354 1534.54907526 282.77213349 1534.55433464 296.32072544 C1534.55466477 297.17612027 1534.55499491 298.0315151 1534.55533505 298.91283098 C1534.55668504 302.39669012 1534.5580477 305.88054925 1534.55942715 309.36440837 C1534.57573344 350.62011664 1534.58211645 391.87582434 1534.58687502 433.13153529 C1534.58925811 453.6763905 1534.59296159 474.22124539 1534.59691212 494.76610036 C1534.60957759 560.67026743 1534.62036087 626.57443449 1534.62375258 692.47860276 C1534.62391482 695.6288253 1534.62408038 698.77904784 1534.62424696 701.92927037 C1534.62458076 708.24708437 1534.62491124 714.56489837 1534.62524152 720.88271236 C1534.62562842 728.27932616 1534.62601802 735.67593995 1534.62641258 743.07255374 C1534.626525 745.18952457 1534.62663642 747.30649539 1534.62674684 749.42346622 C1534.63029547 817.39791013 1534.64537 885.37234346 1534.66868458 953.34678333 C1534.68542971 1002.18757547 1534.70090281 1051.02836561 1534.70541954 1099.86916065 C1534.70555977 1101.37633203 1534.70555977 1101.37633203 1534.70570283 1102.91395131 C1534.70772205 1124.9733503 1534.70887795 1147.03274925 1534.70923142 1169.09214833 C1534.70936759 1176.98593797 1534.70957658 1184.87972761 1534.70982467 1192.77351725 C1534.70988623 1194.73727509 1534.70994455 1196.70103292 1534.70999962 1198.66479075 C1534.71091888 1229.93743614 1534.72088048 1261.21007048 1534.73545711 1292.48271224 C1534.75008505 1323.99163124 1534.75510757 1355.5005367 1534.74703756 1387.0094585 C1534.74592226 1391.3682419 1534.74491158 1395.72702531 1534.74396324 1400.08580875 C1534.74377327 1400.94021307 1534.74358331 1401.79461738 1534.74338758 1402.67491273 C1534.74065904 1416.17746461 1534.74797949 1429.67999137 1534.75953661 1443.18253779 C1534.77070366 1456.47550121 1534.77108246 1469.76842928 1534.76016642 1483.06139328 C1534.75409411 1490.84389871 1534.75609994 1498.62629716 1534.7704184 1506.40879239 C1534.78015219 1512.2049144 1534.77402278 1518.0009372 1534.76200807 1523.79705097 C1534.75959015 1526.11378654 1534.76210055 1528.43053444 1534.77040455 1530.74725638 C1534.921867 1576.01154622 1523.57595741 1617.2907263 1492.37462807 1651.07869434 C1490.77927861 1652.82448933 1489.28698949 1654.58735662 1487.82384682 1656.44197559 C1484.63563893 1660.120677 1481.14189665 1663.1667152 1477.38634682 1666.25447559 C1476.482714 1667.00728809 1475.57908119 1667.76010059 1474.64806557 1668.53572559 C1442.37961021 1694.44889432 1403.51857113 1704.93790469 1362.70184422 1704.75784016 C1360.27619595 1704.76202228 1357.85055019 1704.76795435 1355.42490992 1704.77545762 C1350.17319275 1704.78772311 1344.92162684 1704.78779286 1339.66991322 1704.77672344 C1331.80794418 1704.76022763 1323.94610816 1704.76710821 1316.08413579 1704.77825401 C1302.67931981 1704.7965849 1289.27456472 1704.79608785 1275.86974335 1704.7851305 C1262.29638372 1704.77410316 1248.72306412 1704.77182199 1235.14970207 1704.78007984 C1234.29055441 1704.78059653 1233.43140674 1704.78111322 1232.5462243 1704.78164557 C1229.04672061 1704.78377879 1225.54721696 1704.78597364 1222.04771335 1704.78824667 C1189.4953709 1704.8093754 1156.94305526 1704.8108515 1124.39070892 1704.79965687 C1123.42721376 1704.79932569 1122.46371859 1704.7989945 1121.4710266 1704.79865329 C1120.5059808 1704.79832157 1119.540935 1704.79798985 1118.54664539 1704.79764808 C1089.12707529 1704.78754899 1059.70751626 1704.78495274 1030.28794479 1704.78973866 C1028.3166565 1704.79004857 1026.3453682 1704.7903572 1024.3740799 1704.79066454 C1016.45198222 1704.79190644 1008.52988454 1704.79318111 1000.60778688 1704.79450359 C978.4633639 1704.79817132 956.31894088 1704.80045394 934.17451763 1704.80164814 C933.16617899 1704.80170272 932.15784035 1704.80175731 931.11894599 1704.80181354 C898.99691121 1704.80345025 866.87488029 1704.79894517 834.75284672 1704.79024982 C833.71124991 1704.78996883 832.6696531 1704.78968783 831.59649276 1704.78939832 C814.68241611 1704.78481871 797.76833954 1704.77994078 780.85426298 1704.77503763 C713.7716038 1704.75561206 646.68897656 1704.75651507 579.60631752 1704.77595997 C562.69951283 1704.78084486 545.79270814 1704.78568911 528.88590336 1704.79024982 C527.84484501 1704.79053162 526.80378667 1704.79081341 525.7311811 1704.79110374 C493.64124785 1704.79973025 461.55131725 1704.80338525 429.46138287 1704.80164814 C428.45380135 1704.8015938 427.44621983 1704.80153947 426.40810553 1704.80148348 C404.28875864 1704.80023349 382.16941203 1704.79769879 360.05006542 1704.79400613 C352.13543294 1704.7926896 344.22080045 1704.79143727 336.30616796 1704.79020328 C334.33727261 1704.78989373 332.36837727 1704.78957881 330.39948193 1704.7892585 C300.98819081 1704.78448689 271.57691217 1704.78854452 242.16562261 1704.79865329 C241.20204465 1704.79898447 240.23846669 1704.79931565 239.24568939 1704.79965687 C237.80299704 1704.80015296 237.80299704 1704.80015296 236.33115939 1704.80065908 C203.87243068 1704.81169851 171.41373411 1704.80762022 138.95500999 1704.78653389 C135.46720353 1704.78432454 131.97939703 1704.78217772 128.4915905 1704.78007984 C127.63564167 1704.77955901 126.77969284 1704.77903819 125.89780617 1704.77850158 C112.36253095 1704.77062216 98.82729579 1704.77609414 85.29202418 1704.78715586 C71.97242337 1704.79775545 58.65288992 1704.7939892 45.33329761 1704.77509951 C37.53210325 1704.76445695 29.73109396 1704.76459144 21.9299086 1704.7810259 C16.12542649 1704.79201838 10.32112766 1704.78196972 4.51666994 1704.7640008 C2.1926561 1704.75999218 -0.13138163 1704.76258346 -2.45537636 1704.77282456 C-16.97253049 1704.83222667 -30.46615439 1703.55249853 -44.61365318 1700.25447559 C-45.69369449 1700.00752674 -45.69369449 1700.00752674 -46.79555482 1699.75558901 C-72.79421651 1693.76594701 -96.893243 1680.66013897 -116.28552818 1662.43025684 C-118.09933633 1660.73513749 -119.91595028 1659.16201024 -121.86365318 1657.62947559 C-125.52375287 1654.46848041 -128.54617246 1650.98535989 -131.61365318 1647.25447559 C-132.36646568 1646.35084278 -133.11927818 1645.44720997 -133.89490318 1644.51619434 C-159.80807191 1612.24773898 -170.29708228 1573.38669991 -170.11701775 1532.56997299 C-170.12119987 1530.14432472 -170.12713194 1527.71867897 -170.13463521 1525.2930387 C-170.1469007 1520.04132152 -170.14697045 1514.78975562 -170.13590103 1509.538042 C-170.11940522 1501.67607296 -170.1262858 1493.81423694 -170.1374316 1485.95226457 C-170.15576249 1472.54744859 -170.15526544 1459.1426935 -170.14430809 1445.73787212 C-170.13328075 1432.1645125 -170.13099958 1418.5911929 -170.13925743 1405.01783085 C-170.14003247 1403.72910935 -170.14003247 1403.72910935 -170.14082316 1402.41435308 C-170.14295638 1398.91484939 -170.14515123 1395.41534574 -170.14742426 1391.91584213 C-170.16855299 1359.36349968 -170.17002909 1326.81118403 -170.15883446 1294.2588377 C-170.15850328 1293.29534253 -170.15817209 1292.33184737 -170.15783088 1291.33915538 C-170.15749916 1290.37410958 -170.15716744 1289.40906378 -170.15682567 1288.41477416 C-170.14672658 1258.99520406 -170.14413033 1229.57564504 -170.14891624 1200.15607357 C-170.14922616 1198.18478527 -170.14953479 1196.21349697 -170.14984212 1194.24220868 C-170.15108403 1186.320111 -170.1523587 1178.39801332 -170.15368118 1170.47591565 C-170.15734891 1148.33149267 -170.15963153 1126.18706966 -170.16082573 1104.04264641 C-170.16088031 1103.03430777 -170.1609349 1102.02596912 -170.16099113 1100.98707476 C-170.16262784 1068.86503998 -170.15812276 1036.74300906 -170.14942741 1004.62097549 C-170.14914642 1003.57937869 -170.14886542 1002.53778188 -170.14857591 1001.46462154 C-170.1439963 984.55054488 -170.13911837 967.63646832 -170.13421522 950.72239176 C-170.11478965 883.63973258 -170.11569266 816.55710534 -170.13513756 749.4744463 C-170.14002245 732.56764161 -170.1448667 715.66083691 -170.14942741 698.75403214 C-170.14970921 697.71297379 -170.149991 696.67191545 -170.15028133 695.59930988 C-170.15890784 663.50937663 -170.16256284 631.41944602 -170.16082573 599.32951164 C-170.16077139 598.32193012 -170.16071705 597.3143486 -170.16066107 596.27623431 C-170.15941108 574.15688742 -170.15687638 552.03754081 -170.15318372 529.9181942 C-170.15186719 522.00356172 -170.15061486 514.08892923 -170.14938087 506.17429674 C-170.14907132 504.20540139 -170.1487564 502.23650605 -170.14843609 500.2676107 C-170.14366448 470.85631958 -170.14772211 441.44504095 -170.15783088 412.03375139 C-170.15816206 411.07017342 -170.15849324 410.10659546 -170.15883446 409.11381817 C-170.15916519 408.15202327 -170.15949592 407.19022837 -170.15983667 406.19928816 C-170.1708761 373.74055946 -170.16679781 341.28186288 -170.14571148 308.82313877 C-170.14350213 305.3353323 -170.14135531 301.84752581 -170.13925743 298.35971928 C-170.1387366 297.50377045 -170.13821578 296.64782162 -170.13767917 295.76593495 C-170.12979975 282.23065972 -170.13527173 268.69542456 -170.14633345 255.16015296 C-170.15693304 241.84055214 -170.15316679 228.52101869 -170.1342771 215.20142639 C-170.12363454 207.40023203 -170.12376903 199.59922273 -170.14020349 191.79803738 C-170.15119597 185.99355527 -170.14114731 180.18925644 -170.12317839 174.38479872 C-170.11916977 172.06078488 -170.12176105 169.73674715 -170.13200215 167.41275242 C-170.1914042 152.89561315 -168.91172401 139.40195499 -165.61365318 125.25447559 C-165.44897529 124.53435742 -165.2842974 123.81423924 -165.11462927 123.0722993 C-155.93403396 83.22781023 -129.10553631 46.69862971 -94.5975399 24.98592091 C-90.03312615 22.21967644 -85.36365902 19.68589894 -80.61365318 17.25447559 C-79.98604088 16.93108204 -79.35842857 16.60768848 -78.71179771 16.27449512 C-69.31341962 11.49578322 -59.75493207 8.09655065 -49.61365318 5.25447559 C-48.03777428 4.80781544 -48.03777428 4.80781544 -46.43005943 4.35213184 C-30.94719411 0.21925544 -15.90867969 -0.0328327 0 0 Z " fill="#FEFEFE" transform="translate(913.6136531829834,343.7455244064331)"/>
<path d="M0 0 C2.40330312 -0.00489392 4.80660388 -0.01108604 7.20990068 -0.01845789 C12.41808697 -0.03140857 17.62619384 -0.03512214 22.83439064 -0.0304985 C30.57966473 -0.02364055 38.3248515 -0.03395685 46.07011345 -0.04745606 C60.71114789 -0.07231948 75.35214576 -0.07688732 89.99319794 -0.07499009 C101.30277534 -0.0736151 112.61234012 -0.07744402 123.92191505 -0.08491516 C125.54883728 -0.08596551 127.17575951 -0.08701313 128.80268175 -0.08805802 C129.6103268 -0.08857737 130.41797186 -0.08909671 131.25009101 -0.08963179 C132.05924441 -0.09015194 132.86839781 -0.09067208 133.70207101 -0.09120798 C134.51261693 -0.09173197 135.32316284 -0.09225597 136.15827075 -0.09279584 C158.94486265 -0.10737208 181.73144992 -0.11566477 204.51804638 -0.11104584 C205.37645054 -0.11087388 206.23485469 -0.11070193 207.1192711 -0.11052476 C211.46963648 -0.10963592 215.82000184 -0.10869111 220.1703672 -0.10772675 C221.46627468 -0.1074402 221.46627468 -0.1074402 222.78836211 -0.10714786 C224.5354542 -0.10676077 226.2825463 -0.10637044 228.02963839 -0.10597689 C255.20731915 -0.10000843 282.38491473 -0.11544121 309.56257629 -0.14758301 C340.12400998 -0.18369632 370.68538966 -0.2029877 401.24684602 -0.1980443 C404.50846978 -0.19757435 407.77009353 -0.19716409 411.0317173 -0.1967926 C411.83476199 -0.19669022 412.63780668 -0.19658783 413.46518605 -0.19648234 C425.56387386 -0.19528978 437.66250311 -0.20722502 449.76117516 -0.22593689 C463.52915656 -0.24722072 477.29701552 -0.25097609 491.06500246 -0.2316373 C498.75967275 -0.22134723 506.45404394 -0.22468822 514.1486869 -0.24816815 C519.90981652 -0.26418169 525.67066611 -0.25375577 531.43177108 -0.23344713 C533.7506531 -0.22927607 536.06956942 -0.23341056 538.38841512 -0.24704307 C567.88471328 -0.40853922 593.32037383 7.6764607 614.75666809 28.80456543 C635.95553938 51.47657862 640.62333402 77.74202975 640.57878113 107.57679749 C640.58252042 109.94949947 640.58712305 112.32220022 640.59251177 114.69489902 C640.60344464 120.51771138 640.60511669 126.34047437 640.60279006 132.16329533 C640.6005102 139.14308118 640.60981523 146.12283987 640.6193488 153.10261787 C640.6386625 167.57320825 640.64431605 182.04378443 640.64546292 196.51438618 C640.64638306 207.69290661 640.65050528 218.87142149 640.65686417 230.04994011 C640.65865934 233.27119904 640.66043897 236.49245798 640.66221392 239.71371692 C640.66287707 240.91504734 640.66287707 240.91504734 640.66355361 242.14064706 C640.67585739 264.66002325 640.68375521 287.17939751 640.68286705 309.6987772 C640.68283589 310.54733337 640.68280474 311.39588953 640.68277263 312.27015952 C640.68260643 316.5706907 640.68240835 320.87122188 640.68220322 325.17175306 C640.68214338 326.45283169 640.68214338 326.45283169 640.68208234 327.75979069 C640.68200146 329.48689249 640.68191787 331.21399429 640.68183156 332.94109609 C640.68060646 359.80291547 640.6956135 386.66468433 640.72297668 413.52648926 C640.75372974 443.72826156 640.77090722 473.93000068 640.76905024 504.13178962 C640.76890099 507.35524905 640.76880357 510.57870847 640.76874161 513.80216789 C640.76870664 514.99265135 640.76870664 514.99265135 640.76867098 516.20718497 C640.76860955 528.952664 640.78135519 541.698099 640.79860614 554.44356497 C640.81559951 567.26434336 640.81750756 580.08505767 640.80438749 592.90584112 C640.79766845 599.84486985 640.7971794 606.78375388 640.81509399 613.72276688 C640.83086799 620.08451644 640.82791659 626.44598189 640.81052573 632.80772471 C640.80746539 635.0997494 640.81105141 637.39179553 640.82224588 639.68379492 C640.960791 670.08195998 634.14144512 695.19804298 612.31135559 717.39440918 C611.56369934 718.15495605 610.81604309 718.91550293 610.04573059 719.69909668 C588.18655947 740.61731011 560.8925999 744.8687778 531.79980469 744.77536011 C529.44014896 744.77882173 527.08049485 744.78358967 524.72084409 744.78954184 C518.94580176 744.80070926 513.17088418 744.7980608 507.39584029 744.78938955 C500.47003512 744.77977524 493.54427664 744.78768741 486.61847376 744.79602528 C473.05008833 744.81178329 459.4817454 744.81046884 445.91335598 744.80178854 C434.03724735 744.79422863 422.16115426 744.79227792 410.28504372 744.79585648 C409.10134399 744.79620021 409.10134399 744.79620021 407.89373113 744.79655089 C404.68999186 744.79748497 401.4862526 744.79844018 398.28251334 744.79943018 C368.252813 744.80859898 338.22313965 744.8003003 308.19344347 744.78413949 C281.54580271 744.76990775 254.89820496 744.77117402 228.25056458 744.78552246 C198.278757 744.80160704 168.30697327 744.80794447 138.33516198 744.79868567 C135.13647958 744.79772359 131.93779717 744.79678507 128.73911476 744.79585648 C127.95157773 744.79561924 127.1640407 744.79538201 126.35263891 744.79513759 C114.48950282 744.79173329 102.62638404 744.79570091 90.76325035 744.80329514 C77.2643319 744.81189368 63.76546242 744.8096845 50.26655003 744.7934529 C43.38422773 744.78544904 36.50198475 744.78205099 29.61966324 744.79240036 C23.30992135 744.80139032 17.00034663 744.79634382 10.69061974 744.7804677 C8.41755997 744.777138 6.14448585 744.77877273 3.87143543 744.78609507 C-12.39100774 744.8344317 -29.69321894 744.76435171 -44.93864441 738.33190918 C-45.66841492 738.03445801 -46.39818542 737.73700684 -47.15007019 737.43054199 C-70.52280363 727.43612374 -87.86144263 708.62074627 -97.68864441 685.39440918 C-99.30641137 681.10756676 -100.6680171 676.86091679 -101.68864441 672.39440918 C-101.85550176 671.68673761 -102.02235912 670.97906604 -102.19427276 670.24994987 C-104.39867446 659.31777692 -103.965985 648.23147751 -103.94261169 637.13368225 C-103.9449177 634.75257981 -103.94809517 632.37147809 -103.95206618 629.99037784 C-103.95866516 624.82466859 -103.95908588 619.65899738 -103.95397186 614.49328804 C-103.9463877 606.81147154 -103.95028435 599.12969017 -103.95638848 591.44787389 C-103.96690701 577.72561087 -103.9660123 564.0033665 -103.96023065 550.28110172 C-103.95519569 538.27175419 -103.95388793 526.26241348 -103.95627594 514.25306511 C-103.95642871 513.45585451 -103.95658148 512.65864392 -103.95673888 511.83727543 C-103.95736158 508.60096873 -103.95799838 505.36466203 -103.95865841 502.12835534 C-103.96477395 471.78022535 -103.95923349 441.43210722 -103.94846461 411.08397907 C-103.9389746 384.13495918 -103.93982218 357.1859582 -103.9493866 330.23693848 C-103.96010151 299.94513294 -103.96433929 269.65333789 -103.95816207 239.36153072 C-103.95752066 236.13087682 -103.95689497 232.90022292 -103.95627594 229.66956902 C-103.95611779 228.87412569 -103.95595963 228.07868237 -103.95579668 227.2591347 C-103.95352398 215.25947501 -103.95617813 203.2598229 -103.96123505 191.26016426 C-103.96695806 177.6120345 -103.96551434 163.96392627 -103.95467356 150.31579918 C-103.94880976 142.68218034 -103.94840494 135.04860816 -103.95596591 127.41499055 C-103.96099236 121.70989789 -103.95552333 116.00485326 -103.94601676 110.29976808 C-103.94378647 107.99573918 -103.94491066 105.69170402 -103.94976833 103.38767917 C-104.00428627 75.37618637 -104.00428627 75.37618637 -99.12614441 62.01940918 C-98.86857361 61.30953857 -98.61100281 60.59966797 -98.34562683 59.86828613 C-93.3445258 46.73875419 -85.62348576 36.20206195 -75.68864441 26.39440918 C-74.87524597 25.5822998 -74.06184753 24.77019043 -73.22380066 23.93347168 C-52.24832901 4.011873 -27.75228326 -0.07009499 0 0 Z " fill="#000000" transform="translate(1733.6886444091797,1229.6055908203125)"/>
<path d="M0 0 C2.38328084 -0.00346213 4.76656008 -0.00823041 7.149836 -0.01418173 C12.97933342 -0.02534299 18.80870719 -0.02270439 24.63820612 -0.01402944 C31.62984915 -0.0044106 38.62144599 -0.01232929 45.61308676 -0.02066517 C59.30911459 -0.03641814 73.00510029 -0.03511098 86.70113207 -0.02642844 C98.68646008 -0.0188681 110.67177268 -0.01691803 122.65710258 -0.02049637 C123.85174987 -0.0208401 123.85174987 -0.0208401 125.07053144 -0.02119078 C128.30386784 -0.02212486 131.53720424 -0.02308007 134.77054063 -0.02407007 C165.0722192 -0.03323731 195.37387101 -0.02494202 225.67554545 -0.00877938 C252.57171077 0.00545773 279.46783347 0.00418127 306.36399841 -0.01016235 C336.61338976 -0.0262405 366.86275749 -0.03258842 397.11215252 -0.02332556 C400.33913131 -0.02236347 403.56611011 -0.02142495 406.79308891 -0.02049637 C407.98485174 -0.02014052 407.98485174 -0.02014052 409.20069059 -0.01977748 C421.17648987 -0.01637108 433.15227202 -0.02034463 445.12806892 -0.02793503 C458.75001737 -0.03652597 472.37191729 -0.03434021 485.99385972 -0.0180928 C492.94062557 -0.0100795 499.88731273 -0.00670781 506.83407784 -0.01704025 C513.19913512 -0.02601091 519.56402635 -0.0210151 525.92906868 -0.0051076 C528.2255982 -0.00176987 530.5221419 -0.00343101 532.81866223 -0.01073496 C562.82256024 -0.09880473 587.18070786 6.07908965 609.15818787 27.38095093 C609.75760193 27.90688843 610.35701599 28.43282593 610.97459412 28.97470093 C626.30814719 42.92076312 635.46915425 65.28206121 636.52749169 85.74353671 C636.72381028 91.97209236 636.69712425 98.19950139 636.67285156 104.43035889 C636.67818487 106.8362526 636.68525504 109.24214297 636.69389862 111.64802706 C636.70858874 116.85259895 636.71102646 122.05702337 636.70230103 127.2616024 C636.68936048 135.00143648 636.69944099 142.7411257 636.71380057 150.48095117 C636.73866757 164.3095117 636.74063979 178.13800356 636.73252646 191.96657993 C636.72544054 204.06977613 636.72540895 216.17294577 636.73238945 228.27614212 C636.7333008 229.90265378 636.73421156 231.52916543 636.73512174 233.15567709 C636.73650494 235.60698842 636.73789604 238.05829974 636.73930787 240.50961106 C636.75227911 263.28442182 636.75741483 286.05922373 636.74577427 308.83403587 C636.7453363 309.69164198 636.74489833 310.54924809 636.74444709 311.43284227 C636.74084064 318.39622173 636.73700567 325.35960106 636.73315615 332.32298039 C636.71831026 359.48101306 636.72708917 386.63894515 636.75511169 413.79696655 C636.78657135 444.34414283 636.80149963 474.89125959 636.79131168 505.43845236 C636.79027498 508.6983443 636.78928774 511.95823625 636.78832817 515.2181282 C636.78795484 516.42203598 636.78795484 516.42203598 636.78757397 517.65026513 C636.78414068 529.74102009 636.79341409 541.83172231 636.8090992 553.92246628 C636.82690532 567.6794011 636.82694526 581.43620796 636.80374754 595.19313739 C636.79129079 602.88115287 636.79241062 610.56887395 636.81362841 618.25687185 C636.82794516 624.01293173 636.81583186 629.76870373 636.79383146 635.52472825 C636.78897046 637.84149917 636.79240236 640.15830679 636.8053189 642.4750468 C636.95823716 672.0549252 628.80029621 697.17864567 607.81834412 718.79110718 C585.38473044 739.98850876 558.53861218 744.69252324 528.97579956 744.64837646 C526.60309758 744.65211575 524.23039683 744.65671838 521.85769802 744.66210711 C516.03488567 744.67303998 510.21212267 744.67471202 504.38930172 744.6723854 C497.40951586 744.67010554 490.42975717 744.67941057 483.44997918 744.68894414 C468.9793888 744.70825783 454.50881262 744.71391139 440.03821086 744.71505825 C428.85969044 744.7159784 417.68117556 744.72010061 406.50265694 744.7264595 C403.281398 744.72825468 400.06013906 744.73003431 396.83888012 744.73180926 C396.03799318 744.73225135 395.23710623 744.73269345 394.41194998 744.73314894 C371.8925738 744.74545272 349.37319954 744.75335055 326.85381985 744.75246239 C325.5809856 744.75241565 325.5809856 744.75241565 324.28243752 744.75236797 C319.98190634 744.75220176 315.68137517 744.75200368 311.38084399 744.75179856 C310.52679157 744.75175866 309.67273915 744.75171877 308.79280635 744.75167768 C307.06570455 744.7515968 305.33860275 744.7515132 303.61150095 744.75142689 C276.74968157 744.7502018 249.88791271 744.76520884 223.02610779 744.79257202 C192.82433548 744.82332507 162.62259637 744.84050256 132.42080742 744.83864558 C129.197348 744.83849632 125.97388858 744.83839891 122.75042915 744.83833694 C121.5599457 744.83830198 121.5599457 744.83830198 120.34541208 744.83826631 C107.59993304 744.83820489 94.85449804 744.85095053 82.10903208 744.86820147 C69.28825369 744.88519484 56.46753938 744.8871029 43.64675593 744.87398283 C36.70772719 744.86726379 29.76884317 744.86677474 22.82983017 744.88468933 C16.46808061 744.90046333 10.10661516 744.89751193 3.74487234 744.88012107 C1.45284765 744.87706073 -0.83919848 744.88064674 -3.13119788 744.89184122 C-33.52936293 745.03038634 -58.64544593 738.21104046 -80.84181213 716.38095093 C-81.60235901 715.63329468 -82.36290588 714.88563843 -83.14649963 714.11532593 C-104.06471306 692.2561548 -108.31618075 664.96219524 -108.22276306 635.86940002 C-108.22622468 633.5097443 -108.23099262 631.15009019 -108.23694479 628.79043943 C-108.24811221 623.01539709 -108.24546375 617.24047951 -108.2367925 611.46543563 C-108.2271782 604.53963046 -108.23509037 597.61387198 -108.24342824 590.68806909 C-108.25918625 577.11968366 -108.25787179 563.55134074 -108.2491915 549.98295132 C-108.24163159 538.10684269 -108.23968088 526.2307496 -108.24325943 514.35463905 C-108.24348859 513.5655059 -108.24371774 512.77637275 -108.24395384 511.96332647 C-108.24488793 508.7595872 -108.24584314 505.55584793 -108.24683313 502.35210868 C-108.25600193 472.32240834 -108.24770325 442.29273498 -108.23154244 412.26303881 C-108.2173107 385.61539804 -108.21857697 358.9678003 -108.23292542 332.32015991 C-108.24901 302.34835234 -108.25534742 272.37656861 -108.24608862 242.40475732 C-108.24512655 239.20607492 -108.24418802 236.00739251 -108.24325943 232.8087101 C-108.2430222 232.02117307 -108.24278497 231.23363603 -108.24254054 230.42223424 C-108.23913625 218.55909816 -108.24310386 206.69597937 -108.25069809 194.83284569 C-108.25929664 181.33392724 -108.25708745 167.83505776 -108.24085586 154.33614536 C-108.23285199 147.45382307 -108.22945394 140.57158008 -108.23980331 133.68925858 C-108.24879327 127.37951669 -108.24374678 121.06994197 -108.22787066 114.76021508 C-108.22454096 112.48715531 -108.22617569 110.21408118 -108.23349802 107.94103076 C-108.28183832 91.67735381 -108.21022102 74.37799549 -101.77931213 59.13095093 C-101.48331116 58.40263062 -101.18731018 57.6743103 -100.88233948 56.92391968 C-90.74980201 33.17981761 -71.13639677 15.44157621 -47.52931213 5.56845093 C-31.90666558 0.10836225 -16.34759566 -0.05204778 0 0 Z " fill="#000000" transform="translate(925.8418121337891,1229.6190490722656)"/>
<path d="M0 0 C2.37686798 -0.00417868 4.75373396 -0.00965912 7.13059628 -0.01631981 C12.94817485 -0.0292177 18.76563379 -0.02830356 24.5832198 -0.02135743 C31.55989528 -0.01380581 38.53651958 -0.02374069 45.51318762 -0.03406062 C59.18096272 -0.05368098 72.8486998 -0.05608387 86.51648563 -0.05086542 C98.47894322 -0.04630057 110.44138581 -0.04691698 122.40384293 -0.05270576 C124.01115931 -0.05346265 125.6184757 -0.05421863 127.22579209 -0.05497371 C129.64814618 -0.05611896 132.07050027 -0.05726884 134.49285436 -0.05843295 C157.00009413 -0.06913082 179.50732893 -0.0738705 202.01457024 -0.06596279 C203.28599622 -0.06551703 203.28599622 -0.06551703 204.58310758 -0.06506227 C211.46547449 -0.06261356 218.34784134 -0.06000186 225.23020818 -0.05737813 C252.07253275 -0.04727655 278.91479475 -0.05563233 305.7571106 -0.07887268 C335.94608731 -0.1049686 366.13502637 -0.11778707 396.32401478 -0.11068493 C399.54542803 -0.10996892 402.76684129 -0.10929452 405.98825455 -0.10864449 C406.7813916 -0.10847468 407.57452866 -0.10830487 408.39170017 -0.10812991 C420.3421198 -0.10583103 432.29250435 -0.11378421 444.24291611 -0.12693596 C457.83958883 -0.14187319 471.43617959 -0.14265557 485.03285061 -0.12486505 C491.96570429 -0.11616616 498.89841553 -0.11366822 505.83126068 -0.1295166 C512.18601867 -0.14338698 518.54048672 -0.13856985 524.89522804 -0.11927737 C527.18576738 -0.11552434 529.47633007 -0.11841899 531.76684855 -0.12888902 C560.2018127 -0.24955427 585.86679528 6.0329467 607.02908325 26.0868988 C625.13461617 44.19243172 636.37288692 66.65241338 636.4666543 92.55140337 C636.46488483 93.44264175 636.46311536 94.33388014 636.46129227 95.25212574 C636.46437122 96.70605799 636.46437122 96.70605799 636.46751237 98.18936262 C636.47316864 101.43865286 636.47172681 104.68790053 636.4703064 107.93719482 C636.47289083 110.28994441 636.47590421 112.64269355 636.4793098 114.99544209 C636.48652864 120.78442078 636.48908199 126.57338843 636.48963885 132.36237129 C636.4905542 139.29844564 636.49722687 146.2345115 636.50398568 153.17058218 C636.52003161 169.93456509 636.52594765 186.69854708 636.53073443 203.46253629 C636.53307208 211.39755213 636.53667495 219.33256724 636.5404298 227.26758252 C636.55326492 254.4446931 636.56398346 281.62180327 636.5674324 308.79891682 C636.56765403 310.50438448 636.56787582 312.20985215 636.56809776 313.91531981 C636.56831839 315.6248468 636.56853888 317.3343738 636.5687592 319.04390079 C636.56920175 322.4733539 636.56964887 325.90280702 636.57009888 329.33226013 C636.57020827 330.18256264 636.57031766 331.03286515 636.57043036 331.9089344 C636.57405913 359.46571133 636.58997257 387.02246192 636.61328924 414.57922876 C636.63791138 443.73232428 636.65160638 472.88540476 636.65280032 502.03851098 C636.65297177 505.24181156 636.65318719 508.44511213 636.65343475 511.6484127 C636.65349052 512.43712174 636.65354629 513.22583077 636.65360375 514.03844008 C636.65475221 526.70602602 636.66575684 539.37358485 636.68032181 552.04116164 C636.69472191 564.786244 636.69790404 577.53129177 636.68988183 590.27638004 C636.68583107 597.17485364 636.68647343 604.07324443 636.70093918 610.97170639 C636.71371782 617.29656309 636.71244574 623.62126106 636.70034847 629.94611766 C636.69839832 632.22480329 636.70143804 634.50350033 636.71019283 636.78216998 C636.81040584 664.64693557 632.94410819 689.36465512 614.3298645 711.38768005 C613.66213013 712.20107849 612.99439575 713.01447693 612.306427 713.8525238 C599.96202461 728.3137461 582.85216721 738.15520817 564.3298645 742.38768005 C563.62219293 742.55453741 562.91452136 742.72139476 562.18540519 742.8933084 C551.25323224 745.0977101 540.16693283 744.66502064 529.06913757 744.64164734 C526.68803514 744.64395335 524.30693341 744.64713082 521.92583317 744.65110183 C516.76012392 744.6577008 511.5944527 744.65812152 506.42874336 744.65300751 C498.74692687 744.64542334 491.0651455 744.64931999 483.38332921 744.65542412 C469.66106619 744.66594266 455.93882183 744.66504794 442.21655704 744.6592663 C430.20720951 744.65423133 418.1978688 744.65292358 406.18852043 744.65531158 C405.39130984 744.65546435 404.59409924 744.65561712 403.77273075 744.65577452 C400.53642405 744.65639722 397.30011736 744.65703402 394.06381066 744.65769405 C363.71568067 744.66380959 333.36756255 744.65826913 303.01943439 744.64750026 C276.0704145 744.63801024 249.12141352 744.63885782 222.1723938 744.64842224 C191.88058826 744.65913715 161.58879321 744.66337493 131.29698604 744.65719771 C128.06633214 744.6565563 124.83567824 744.65593062 121.60502434 744.65531158 C120.80958101 744.65515343 120.01413769 744.65499528 119.19459002 744.65483233 C107.19493033 744.65255963 95.19527822 744.65521377 83.19561958 744.66027069 C69.54748982 744.66599371 55.89938159 744.66454998 42.25125451 744.6537092 C34.61763567 744.6478454 26.98406348 744.64744058 19.35044587 744.65500155 C13.64535322 744.66002801 7.94030858 744.65455897 2.23522341 744.6450524 C-0.06880549 744.64282212 -2.37284065 744.64394631 -4.67686551 744.64880398 C-32.6883583 744.70332192 -32.6883583 744.70332192 -46.0451355 739.82518005 C-46.7550061 739.56760925 -47.46487671 739.31003845 -48.19625854 739.04466248 C-61.33078514 734.04165896 -71.85308076 726.31789968 -81.6701355 716.38768005 C-82.48224487 715.58588318 -83.29435425 714.7840863 -84.131073 713.95799255 C-100.08145985 697.35434754 -107.84151885 674.2413905 -107.80435658 651.51575661 C-107.80670881 650.5335161 -107.80906104 649.55127559 -107.81148455 648.53927022 C-107.81815436 645.23991922 -107.81771693 641.94060778 -107.81730652 638.64125061 C-107.8206064 636.25494018 -107.82433223 633.86863031 -107.828448 631.48232114 C-107.83741169 625.60651747 -107.84169339 619.73072088 -107.84396696 613.85491183 C-107.84693316 606.8158171 -107.85563303 599.77673233 -107.86438124 592.73764283 C-107.88521013 575.72413067 -107.89569319 558.71061678 -107.90451085 541.69709483 C-107.90871978 533.64537772 -107.91394146 525.59366134 -107.91919538 517.54194485 C-107.93708467 489.96987792 -107.95207964 462.39781077 -107.95951557 434.82573891 C-107.95999033 433.09524181 -107.96046621 431.36474472 -107.96094323 429.63424762 C-107.96117961 428.77609324 -107.96141599 427.91793886 -107.96165952 427.0337798 C-107.9628607 422.686089 -107.96407616 418.3383982 -107.96530151 413.9907074 C-107.96554166 413.12790174 -107.96578181 412.26509609 -107.96602924 411.37614481 C-107.97391972 383.41068261 -107.99734684 355.44526286 -108.02985746 327.4798192 C-108.06418144 297.90041331 -108.0838691 268.32103225 -108.08715981 238.74160612 C-108.08757734 235.49226657 -108.0880569 232.24292703 -108.08858299 228.99358749 C-108.08870618 228.19353191 -108.08882938 227.39347632 -108.0889563 226.56917663 C-108.09128515 213.71237436 -108.10692748 200.85562152 -108.12742484 187.99883685 C-108.14771482 175.06658657 -108.15314516 162.13439543 -108.1436542 149.20213218 C-108.13845153 141.52710675 -108.14425807 133.85227875 -108.16618888 126.17728187 C-108.18135404 120.4340542 -108.17541089 114.69099811 -108.16151836 108.94777434 C-108.15914403 106.63342657 -108.16345658 104.31905959 -108.17534701 102.00474115 C-108.31367052 73.29012784 -101.22271932 49.16906697 -81.224823 27.85643005 C-58.02668431 5.43865688 -31.34495634 -0.09012526 0 0 Z " fill="#000000" transform="translate(1737.6701354980469,417.61231994628906)"/>
<path d="M0 0 C2.36382184 -0.00390115 4.72764132 -0.00954808 7.09145534 -0.0167709 C12.86127686 -0.02989729 18.63087013 -0.0246909 24.40068635 -0.01137793 C31.32338128 0.00353755 38.24600022 -0.00503352 45.16869816 -0.01415812 C58.72861834 -0.03128426 72.28845725 -0.02585143 85.84837568 -0.01080093 C97.71407791 0.00228329 109.57975203 0.00744057 121.44546127 0.00488091 C122.23446459 0.00472049 123.02346791 0.00456007 123.83638042 0.0043948 C127.03968567 0.00373115 130.2429909 0.00302872 133.44629612 0.00226946 C163.45497502 -0.00474421 193.46360448 0.01070232 223.47227079 0.03689292 C250.10041569 0.06001003 276.72850627 0.06539337 303.35665894 0.05516052 C310.17776042 0.05255825 316.9988619 0.04997316 323.81996346 0.0475626 C325.07982457 0.04711643 325.07982457 0.04711643 326.36513742 0.04666124 C348.65464886 0.03903749 370.94415589 0.04546637 393.23366535 0.05625862 C395.63348285 0.05740636 398.03330035 0.05854953 400.43311785 0.05968544 C402.02490473 0.06044069 403.6166916 0.06120633 405.20847847 0.06198245 C417.06458975 0.06762787 428.92068693 0.06631961 440.77679825 0.06175423 C454.26357456 0.05663455 467.75029837 0.06255199 481.23706163 0.08264852 C488.11320968 0.09263256 494.9892801 0.09804271 501.86543274 0.08975601 C508.16818176 0.08266528 514.47075925 0.08958291 520.77348576 0.10735964 C523.04506071 0.11138216 525.31665146 0.11044152 527.58822037 0.10384078 C555.21043422 0.03048826 580.22192184 4.09340178 602.0007019 22.50120544 C602.81410034 23.16893982 603.62749878 23.83667419 604.46554565 24.52464294 C619.01135765 36.94125287 629.02508031 53.82365647 633.0007019 72.50120544 C633.16755926 73.21698147 633.33441661 73.9327575 633.50633025 74.67022371 C635.71674498 85.59406374 635.27801975 96.67823787 635.25466919 107.7686615 C635.2569752 110.15047663 635.26015266 112.53229105 635.26412368 114.91410398 C635.27072265 120.08134358 635.27114338 125.24854515 635.26602936 130.41578484 C635.25844523 138.09982344 635.2623418 145.78382692 635.26844597 153.4678653 C635.27896437 167.19380883 635.27806989 180.91973372 635.27228815 194.64567901 C635.26725335 206.65761735 635.26594535 218.66954886 635.26833344 230.68148804 C635.26856259 231.87752162 635.26856259 231.87752162 635.26879638 233.09771749 C635.26941907 236.33459543 635.27005587 239.57147336 635.2707159 242.80835129 C635.27683135 273.16122657 635.27129103 303.51408999 635.26052211 333.86696344 C635.25103119 360.82268718 635.25188045 387.77839202 635.26144409 414.7341156 C635.27215766 445.03213748 635.27639761 475.33014889 635.27021956 505.6281724 C635.26957815 508.85908921 635.26895247 512.09000603 635.26833344 515.32092285 C635.26817528 516.1164336 635.26801713 516.91194435 635.26785418 517.73156148 C635.26558101 529.73477067 635.26823647 541.73797228 635.27329254 553.74118042 C635.27901399 567.39190062 635.27757513 581.04259929 635.26673105 594.69331682 C635.2608648 602.32936771 635.260466 609.96537195 635.2680234 617.60142162 C635.27304619 623.30654808 635.26758597 629.01162646 635.25807425 634.71674544 C635.25584227 637.02210243 635.25697198 639.32746568 635.26182583 641.63281864 C635.32026021 671.69514319 628.85124982 696.47902958 607.3132019 718.68870544 C594.37164133 731.52665064 576.92585532 740.46699979 559.0007019 743.50120544 C557.98743533 743.67391077 556.97416875 743.84661609 555.93019712 744.02455491 C551.30078307 744.58610609 546.78665297 744.64304335 542.12877846 744.63542652 C541.14653795 744.63777875 540.16429744 744.64013098 539.15229207 744.64255449 C535.85294107 744.6492243 532.55362963 744.64878688 529.25427246 744.64837646 C526.86796203 744.65167634 524.48165216 744.65540217 522.09534299 744.65951794 C516.21953932 744.66848164 510.34374273 744.67276334 504.46793368 744.67503691 C497.42883895 744.6780031 490.38975418 744.68670298 483.35066468 744.69545119 C466.33715252 744.71628008 449.32363863 744.72676314 432.31011668 744.7355808 C424.25839957 744.73978973 416.20668319 744.7450114 408.1549667 744.75026533 C380.58289977 744.76815462 353.01083262 744.78314959 325.43876076 744.79058552 C323.70826366 744.79106027 321.97776657 744.79153616 320.24726947 744.79201318 C319.38911509 744.79224956 318.53096071 744.79248593 317.64680165 744.79272947 C313.29911085 744.79393064 308.95142005 744.7951461 304.60372925 744.79637146 C303.30952077 744.79673168 303.30952077 744.79673168 301.98916666 744.79709919 C274.02370446 744.80498967 246.05828471 744.82841679 218.09284105 744.8609274 C188.51343516 744.89525139 158.9340541 744.91493905 129.35462797 744.91822976 C126.10528842 744.91864728 122.85594888 744.91912684 119.60660934 744.91965294 C118.80655376 744.91977613 118.00649817 744.91989932 117.18219848 744.92002625 C104.32539621 744.92235509 91.46864337 744.93799743 78.6118587 744.95849479 C65.67960842 744.97878476 52.74741729 744.98421511 39.81515403 744.97472415 C32.1401286 744.96952148 24.4653006 744.97532801 16.79030372 744.99725882 C11.04707605 745.01242399 5.30401996 745.00648084 -0.43920381 744.9925883 C-2.75355158 744.99021398 -5.06791856 744.99452653 -7.382237 745.00641695 C-36.80923219 745.14817214 -60.66485244 737.69289945 -82.44070435 717.14964294 C-104.33595732 694.48554902 -109.4742148 667.16865487 -109.38697815 636.83779907 C-109.39115684 634.46164379 -109.39663728 632.0854905 -109.40329796 629.70934087 C-109.41619585 623.89349226 -109.4152817 618.07776332 -109.40833558 612.26190726 C-109.40078392 605.28725426 -109.4107189 598.31265246 -109.42103877 591.3380069 C-109.4406594 577.67391231 -109.44306193 564.00985575 -109.43784357 550.34575042 C-109.43327857 538.38588364 -109.43389532 526.42603185 -109.43968391 514.46616554 C-109.4404408 512.8591408 -109.44119678 511.25211605 -109.44195186 509.6450913 C-109.44309711 507.2231634 -109.44424699 504.80123549 -109.4454111 502.3793076 C-109.45610911 479.87564121 -109.46084855 457.3719798 -109.45294094 434.86831188 C-109.45264377 434.02081978 -109.45234659 433.17332767 -109.45204042 432.30015399 C-109.44959172 425.4188325 -109.44698001 418.53751107 -109.44435628 411.65618964 C-109.43425567 384.82056893 -109.44260858 357.98501079 -109.46585083 331.1493988 C-109.49195003 300.96663843 -109.50476427 270.78391573 -109.49766308 240.60114366 C-109.49694707 237.37999333 -109.49627268 234.15884299 -109.49562263 230.93769264 C-109.49545283 230.14462301 -109.49528302 229.35155337 -109.49510806 228.53445133 C-109.49280965 216.5875812 -109.50076015 204.64074616 -109.51391411 192.6938839 C-109.52885546 179.09980161 -109.5296283 165.5058013 -109.5118432 151.91172072 C-109.50314756 144.9807684 -109.50063813 138.04995851 -109.51649475 131.11901474 C-109.53037457 124.76482129 -109.52553596 118.41091763 -109.50625551 112.0567408 C-109.50250535 109.76752955 -109.50538878 107.47829491 -109.51586717 105.18910458 C-109.64490446 74.82067534 -102.83349746 49.66401316 -80.9992981 27.50120544 C-58.20275641 4.66654245 -30.8902445 -0.14270296 0 0 Z " fill="#000000" transform="translate(926.9992980957031,417.49879455566406)"/>
<path d="M0 0 C32.67 0 65.34 0 99 0 C99.33 54.78 99.66 109.56 100 166 C103.3 163.69 106.6 161.38 110 159 C138.19090758 141.28583757 170.0497686 133.58503656 203.14208984 133.73925781 C205.86448572 133.74995867 208.58621799 133.73930908 211.30859375 133.7265625 C243.13722426 133.70026722 275.09719531 140.19507006 303 156 C303.63728027 156.35707031 304.27456055 156.71414062 304.93115234 157.08203125 C349.46457802 182.25648212 385.14747207 226.46915885 399 276 C399.0093457 275.37770508 399.01869141 274.75541016 399.02832031 274.11425781 C399.73057764 236.59168499 410.16091579 204.50056177 437.29296875 177.73828125 C458.08076182 158.30695102 483.87321122 146.56866708 511.25 139.75 C512.17586914 139.51563232 513.10173828 139.28126465 514.05566406 139.03979492 C531.94270196 134.8393252 550.02728512 133.49574553 568.35180664 133.60888672 C571.4335565 133.62497941 574.51399215 133.60891042 577.59570312 133.58984375 C620.83264262 133.54356414 665.81206752 143.87757882 701 170 C701.92167969 170.680625 702.84335938 171.36125 703.79296875 172.0625 C730.03115638 192.52596096 751.76191672 222.7804843 756.33447266 256.46386719 C756.57758257 258.64121238 756.80212872 260.81811854 757 263 C742.85135448 266.51647622 728.51537353 268.83040661 714.13720703 271.17124939 C707.35995658 272.27480143 700.58769038 273.40049869 693.82421875 274.5859375 C693.14238022 274.70457657 692.46054169 274.82321564 691.75804138 274.94544983 C687.43684756 275.7093534 683.15573667 276.59870562 678.875 277.5625 C671.6286457 279.16343874 664.36437359 280.12328886 657 281 C656.79246094 280.07960938 656.58492187 279.15921875 656.37109375 278.2109375 C651.51960336 258.27719872 641.79375914 243.04916955 623.9921875 232.16015625 C597.81585216 218.01998456 562.92279531 214.19812728 534.27832031 222.25927734 C520.79204535 226.64390639 507.78321145 234.19451428 501 247 C497.05326888 254.96821094 496.62474882 264.28144141 498.69140625 272.875 C502.36307593 282.95288834 508.69253219 288.14067946 518 293 C519.55267578 293.81597656 519.55267578 293.81597656 521.13671875 294.6484375 C546.36979827 307.13782288 575.11901238 313.72084295 602.31640625 320.66015625 C719.04567974 350.45468401 719.04567974 350.45468401 746.5534668 396.79296875 C750.66299899 403.94377278 753.89335746 410.99048089 756 419 C756.42732422 420.58748047 756.42732422 420.58748047 756.86328125 422.20703125 C765.07505643 455.0152136 760.47795613 494.56221704 743.23217773 523.92016602 C722.19651917 558.27759205 686.66309979 579.18322047 648.18554688 588.69580078 C641.16084839 590.33920432 634.09703319 591.71005753 627 593 C625.70425049 593.24991699 625.70425049 593.24991699 624.38232422 593.50488281 C610.35485822 596.13963532 596.34873443 596.26013938 582.125 596.25 C581.20770111 596.24940582 580.29040222 596.24881165 579.3453064 596.24819946 C563.55308258 596.2091758 547.77797167 596.00373702 532.1875 593.25 C531.17397461 593.0744458 530.16044922 592.8988916 529.11621094 592.71801758 C495.19720778 586.65346967 463.43849986 574.63030535 437 552 C436.18015625 551.30261719 435.3603125 550.60523437 434.515625 549.88671875 C424.09962109 540.78080229 415.38572668 530.7037853 408 519 C407.43732422 518.10933838 407.43732422 518.10933838 406.86328125 517.20068359 C399.42926636 505.21555463 394.44918371 492.34755114 390 479 C389.62415771 479.73766602 389.62415771 479.73766602 389.24072266 480.49023438 C374.27586515 509.72769748 356.13064525 536.61017833 330 557 C329.44957031 557.4321582 328.89914062 557.86431641 328.33203125 558.30957031 C298.58965404 581.48523166 260.88511607 595.98842971 222.9609375 596.203125 C222.12566025 596.21018463 221.290383 596.21724426 220.42979431 596.22451782 C194.48922538 596.3938743 170.91556576 594.71611954 146 587 C144.73929688 586.62101562 143.47859375 586.24203125 142.1796875 585.8515625 C128.68351101 581.43634003 116.07346479 574.35441317 104.375 566.375 C103.45388428 565.74730713 103.45388428 565.74730713 102.51416016 565.10693359 C97.25901661 561.40286139 92.88823634 557.34509897 88 553 C87.67 563.23 87.34 573.46 87 584 C58.29 584 29.58 584 0 584 C0 391.28 0 198.56 0 0 Z " fill="#FEFEFE" transform="translate(1494,2176)"/>
<path d="M0 0 C4.09029395 3.86305539 7.88265518 7.83782988 11.375 12.25 C12.11105469 13.17554687 12.84710937 14.10109375 13.60546875 15.0546875 C32.77399619 40.07563865 40.61258551 67.62208411 43.14120156 98.53968304 C43.2901151 100.26596869 43.45213564 101.99120988 43.63148397 103.71459943 C44.35059256 110.75057535 44.51370851 117.70318264 44.49525452 124.7721405 C44.49653615 126.59321043 44.49653615 126.59321043 44.49784368 128.45106965 C44.49919719 131.78970337 44.49610568 135.12827736 44.49106562 138.46690381 C44.48672119 142.07887776 44.48821036 145.69085009 44.4889679 149.30282593 C44.48949061 155.55049762 44.48637024 161.79815881 44.48073006 168.04582787 C44.47258078 177.07875399 44.46999633 186.11167508 44.46874207 195.14460448 C44.46655692 209.80221641 44.45991144 224.45982275 44.45043945 239.11743164 C44.44125141 253.35050427 44.43417739 267.58357539 44.42993164 281.81665039 C44.42953756 283.134061 44.42953756 283.134061 44.42913551 284.47808596 C44.42783041 288.88440999 44.42656672 293.29073403 44.42532361 297.69705808 C44.41496774 334.21471035 44.39653847 370.73235228 44.375 407.25 C15.995 407.25 -12.385 407.25 -41.625 407.25 C-41.955 388.44 -42.285 369.63 -42.625 350.25 C-45.265 353.55 -47.905 356.85 -50.625 360.25 C-52.43165462 362.33590903 -54.26120612 364.40248409 -56.125 366.4375 C-56.9809375 367.37980469 -57.836875 368.32210937 -58.71875 369.29296875 C-88.71187587 400.71332433 -133.15643182 418.27219078 -176.29296875 419.39941406 C-181.44534495 419.49473148 -186.59686621 419.51005407 -191.75 419.5 C-192.5873468 419.49913391 -193.4246936 419.49826782 -194.28741455 419.49737549 C-235.49373937 419.38738432 -273.25029801 410.36148187 -303.625 381.25 C-304.470625 380.445625 -305.31625 379.64125 -306.1875 378.8125 C-306.991875 377.966875 -307.79625 377.12125 -308.625 376.25 C-309.57052734 375.31414063 -309.57052734 375.31414063 -310.53515625 374.359375 C-321.76796548 362.7105358 -329.31963161 348.42542061 -334.625 333.25 C-335.00140625 332.24839844 -335.3778125 331.24679687 -335.765625 330.21484375 C-340.53795857 316.98408314 -342.11872783 303.8142379 -341.96118164 289.85839844 C-341.93743401 287.61877612 -341.94067535 285.38034316 -341.94726562 283.140625 C-341.87993017 248.79530288 -330.5243928 217.26163899 -306.4375 192.625 C-284.5079688 170.95761343 -255.26825275 158.17463588 -225.69189453 150.78564453 C-223.68330815 150.26511081 -221.70080853 149.69046001 -219.71484375 149.08984375 C-209.45651865 146.01682693 -199.04510398 143.77742269 -188.5625 141.625 C-187.852146 141.47879211 -187.14179199 141.33258423 -186.40991211 141.1819458 C-175.846257 139.0172074 -165.25064055 137.08395172 -154.625 135.25 C-153.0286225 134.96888246 -151.43226266 134.68766459 -149.8359375 134.40625 C-140.79971463 132.86033814 -131.75481039 131.59096485 -122.65917969 130.44750977 C-115.32921725 129.51095734 -108.04138613 128.38584897 -100.75 127.1875 C-92.95806346 125.90787001 -85.18297993 124.7576004 -77.33300781 123.90258789 C-72.03901057 123.32335148 -66.80205843 122.52190663 -61.5546875 121.6171875 C-58.22165322 121.1994472 -54.98065288 121.19142252 -51.625 121.25 C-54.21580364 100.50250743 -58.40499597 79.99545821 -74.625 65.25 C-78.15547379 62.64859826 -81.80935301 60.40617922 -85.625 58.25 C-86.26953125 57.86070312 -86.9140625 57.47140625 -87.578125 57.0703125 C-94.0717563 53.42823234 -101.41986778 51.87419062 -108.625 50.25 C-109.29789063 50.09611816 -109.97078125 49.94223633 -110.6640625 49.78369141 C-141.83082319 42.93263303 -177.23923342 47.38137175 -204.7578125 64.16015625 C-220.31343326 75.05775687 -229.82038871 89.67940748 -236.625 107.25 C-242.57500394 106.60597696 -247.99229969 105.03940629 -253.68359375 103.22265625 C-254.65368881 102.91783829 -255.62378387 102.61302032 -256.62327576 102.29896545 C-259.77131352 101.30856504 -262.91690342 100.31062371 -266.0625 99.3125 C-268.22590969 98.63017472 -270.38948489 97.94837402 -272.55322266 97.26708984 C-276.87621211 95.90543804 -281.19838618 94.54124221 -285.52001953 93.17529297 C-290.95579177 91.45881723 -296.39621945 89.75779651 -301.83984375 88.06640625 C-302.5954509 87.8314595 -303.35105804 87.59651276 -304.12956238 87.35444641 C-306.93196415 86.48324942 -309.73443788 85.6122925 -312.53756714 84.74343872 C-314.39792503 84.16645632 -316.25757848 83.58720397 -318.1171875 83.0078125 C-319.14183105 82.6895752 -320.16647461 82.37133789 -321.22216797 82.04345703 C-323.625 81.25 -323.625 81.25 -325.625 80.25 C-319.54221299 46.18639275 -296.23560203 15.26954469 -269.625 -5.75 C-268.696875 -6.49507812 -267.76875 -7.24015625 -266.8125 -8.0078125 C-239.98535967 -28.93006596 -207.12060404 -38.58367188 -173.625 -41.75 C-172.357771 -41.8881311 -172.357771 -41.8881311 -171.06494141 -42.02905273 C-112.68463916 -47.82541994 -45.66086032 -39.8931727 0 0 Z " fill="#FEFEFE" transform="translate(1426.625,2352.75)"/>
<path d="M0 0 C23.04782061 18.71404237 39.05989208 44.33138394 43 74 C44.06959356 89.89277797 43.90111579 105.75581413 39 121 C38.78569336 121.68304199 38.57138672 122.36608398 38.35058594 123.06982422 C33.19195775 139.08259656 24.61054544 152.09929025 14 165 C12.66448166 166.66491631 11.33029876 168.3309102 10 170 C10.80824219 170.73605469 11.61648437 171.47210937 12.44921875 172.23046875 C13.52870221 173.21608409 14.60812612 174.20176465 15.6875 175.1875 C16.48317383 175.91163086 16.48317383 175.91163086 17.29492188 176.65039062 C20.61656045 179.68673509 23.84011555 182.79372246 27 186 C27.75539063 186.74636719 28.51078125 187.49273438 29.2890625 188.26171875 C45.82805916 205.43683067 54.78808997 227.07944112 60 250 C60.2475 251.02222656 60.495 252.04445313 60.75 253.09765625 C67.3328361 284.86898324 58.16942368 320.02729769 40.81884766 346.82421875 C35.86920882 354.08058802 30.0067106 360.61226671 24 367 C23.4740625 367.59039063 22.948125 368.18078125 22.40625 368.7890625 C1.21068698 391.60673493 -32.87860867 403.98425705 -63.3828125 405.2734375 C-94.03878157 406.03224862 -123.94342759 397.42370897 -148 378 C-148.54221191 377.56848633 -149.08442383 377.13697266 -149.64306641 376.69238281 C-175.46870079 356.00019625 -194.06677156 325.23782885 -198 292 C-198.25806883 287.16989445 -198.33012617 282.35888599 -198.31567383 277.52270508 C-198.31252941 275.33298127 -198.33600254 273.14463461 -198.36132812 270.95507812 C-198.50738133 238.49572121 -184.31665546 206.58069639 -161.71484375 183.41503906 C-161.10769531 182.80370117 -160.50054688 182.19236328 -159.875 181.5625 C-159.30136719 180.98338867 -158.72773437 180.40427734 -158.13671875 179.80761719 C-154.34674477 176.08052035 -150.39447901 172.99115301 -146 170 C-146.804375 169.071875 -147.60875 168.14375 -148.4375 167.1875 C-149.25927734 166.22070312 -149.25927734 166.22070312 -150.09765625 165.234375 C-151.4274141 163.67252389 -152.76963017 162.12123258 -154.12109375 160.578125 C-173.88657532 137.42133897 -181.53889676 108.0138302 -180 78 C-179.45837807 72.55557126 -178.30399539 67.3127847 -177 62 C-176.75636719 60.86949219 -176.51273438 59.73898437 -176.26171875 58.57421875 C-169.617838 31.27448126 -149.94775269 7.66037 -126.6171875 -7.19921875 C-86.99736165 -30.88988911 -36.67356164 -28.29044477 0 0 Z " fill="#FEFEFE" transform="translate(2070,590)"/>
<path d="M0 0 C32.34 0 64.68 0 98 0 C98 197.01 98 394.02 98 597 C65.66 597 33.32 597 0 597 C0 399.99 0 202.98 0 0 Z " fill="#FDFDFD" transform="translate(971,2163)"/>
<path d="M0 0 C0.82371094 0.67804687 1.64742187 1.35609375 2.49609375 2.0546875 C18.55609082 15.7344978 28.43367679 34.23381604 35 54 C35.37898438 55.12277344 35.75796875 56.24554687 36.1484375 57.40234375 C42.87886531 78.2767909 44.44079186 99.5618453 44.4375 121.375 C44.43889984 122.27676971 44.44029968 123.17853943 44.44174194 124.1076355 C44.41338845 146.52637031 41.72858974 168.81893451 34 190 C33.75024414 190.69303223 33.50048828 191.38606445 33.24316406 192.10009766 C23.25414543 219.26118075 5.55046874 242.23005865 -20.97265625 254.9453125 C-47.80233145 267.1775532 -83.66259719 266.82596527 -111.21337891 256.92944336 C-136.06823325 247.28271253 -152.87362696 226.64880285 -163.40625 202.80078125 C-180.76642822 162.06873629 -182.33724049 107.78718672 -172 65 C-171.83661133 64.28457031 -171.67322266 63.56914062 -171.50488281 62.83203125 C-164.56872624 32.62577454 -150.32036005 5.77488405 -123.5625 -11.25 C-118.19825591 -14.43365706 -112.92583024 -17.05632768 -107 -19 C-106.16339844 -19.27457031 -105.32679687 -19.54914062 -104.46484375 -19.83203125 C-69.35795212 -30.32790607 -27.99649891 -24.04770588 0 0 Z " fill="#000000" transform="translate(1758,2421)"/>
<path d="M0 0 C9.09271653 7.67757103 14.43302006 16.52715411 15.6159296 28.52354991 C15.76393503 32.80552554 15.78419909 37.07002132 15.75793457 41.35362244 C15.76255104 43.00463982 15.76890894 44.65565308 15.77684355 46.30665785 C15.79345778 50.81519055 15.78532669 55.32338221 15.77289867 59.83191574 C15.76381789 64.70523251 15.77783294 69.57849219 15.78881836 74.45179749 C15.80657631 83.98769938 15.80277562 93.52347512 15.7911678 103.05938189 C15.78212249 110.81214139 15.78091422 118.5648656 15.78526306 126.31762886 C15.78587599 127.42239408 15.78648893 128.5271593 15.78712043 129.66540225 C15.78839938 131.90994935 15.78969623 134.15449643 15.7910108 136.39904351 C15.80240876 157.43145279 15.78931546 178.46379225 15.76780933 199.49619008 C15.74994156 217.52833811 15.75304136 235.56038312 15.77148438 253.5925293 C15.79290921 274.54977395 15.80130758 295.50695745 15.78903532 316.46421152 C15.78776117 318.70065946 15.78650369 320.93710741 15.78526306 323.17355537 C15.78433741 324.82396787 15.78433741 324.82396787 15.78339306 326.50772203 C15.77994481 334.24730409 15.78575721 341.98684723 15.79518127 349.72642326 C15.80642066 359.16401722 15.80332054 368.60147816 15.7820583 378.03905695 C15.77157363 382.85083342 15.76738184 387.66238842 15.78065491 392.47416306 C15.79263846 396.8853104 15.78591872 401.29603253 15.7647447 405.7071417 C15.76030374 407.29650157 15.76248802 408.88589792 15.77224785 410.47523402 C15.854295 424.95532977 13.68707813 436.975388 3.4375 447.7109375 C-4.87342501 455.65323277 -14.98458297 458.28315463 -26.23828125 458.14453125 C-36.81950032 457.14408228 -44.73045562 451.49012666 -51.75 443.8125 C-58.86729284 434.86455732 -60.19580013 425.42111531 -60.14872742 414.26512146 C-60.15537424 413.02419882 -60.16202107 411.78327619 -60.16886932 410.50474983 C-60.18423403 407.08165352 -60.18634823 403.65902365 -60.18273985 400.23592651 C-60.18211391 396.53662836 -60.19875559 392.837402 -60.21325684 389.13813782 C-60.23601031 382.73600667 -60.24792232 376.33392981 -60.25238609 369.93176079 C-60.25885568 360.67541377 -60.28180727 351.41916476 -60.30872939 342.1628573 C-60.35196771 327.14366021 -60.38195133 312.12446725 -60.40356445 297.10522461 C-60.424583 282.51894093 -60.45186575 267.93269105 -60.48754883 253.34643555 C-60.48974765 252.44672739 -60.49194648 251.54701924 -60.49421193 250.6200472 C-60.50528181 246.10629314 -60.51647457 241.59253939 -60.52772844 237.07878578 C-60.62087169 199.65671971 -60.69248905 162.23463695 -60.75 124.8125 C-63.27516805 127.30815251 -65.79429373 129.80982451 -68.3125 132.3125 C-69.01697266 133.00859375 -69.72144531 133.7046875 -70.44726562 134.421875 C-74.54028207 138.49602961 -78.45505489 142.65645885 -82.20410156 147.05004883 C-88.76854756 154.53405635 -96.85096242 159.44577485 -106.953125 160.26171875 C-118.57537594 160.75834102 -127.5183313 158.45463377 -136.640625 150.93359375 C-144.62358909 142.90627986 -148.15262189 133.60553281 -148.125 122.4375 C-148.0977596 115.76861897 -147.5089472 110.50329004 -143.75 104.8125 C-143.07904297 103.78962891 -143.07904297 103.78962891 -142.39453125 102.74609375 C-139.50575561 98.66463326 -136.21984206 95.14842358 -132.6237793 91.68701172 C-130.82577492 89.88830454 -129.17558259 88.02953283 -127.52734375 86.09375 C-123.16984102 81.07682378 -118.45209132 76.46282712 -113.7109375 71.8125 C-110.43299366 68.57252463 -107.25864439 65.30552931 -104.25 61.8125 C-99.99967188 56.87787869 -95.35741662 52.36996611 -90.7109375 47.8125 C-86.73924924 43.88681586 -82.98410521 39.85597929 -79.33984375 35.625 C-76.52150856 32.41195939 -73.43499225 29.47946613 -70.375 26.5 C-68.30781086 24.38359207 -66.36309416 22.2462118 -64.4296875 20.01171875 C-60.71999206 15.73724275 -56.84741534 11.65526605 -52.875 7.625 C-52.21886719 6.93986328 -51.56273437 6.25472656 -50.88671875 5.54882812 C-36.83009789 -8.68589807 -16.79741595 -12.22147015 0 0 Z " fill="#FDFDFD" transform="translate(1249.75,1367.1875)"/>
<path d="M0 0 C8.60270526 6.84306101 14.97815525 15.00639873 16.75 26.1875 C16.84155334 28.46416585 16.87907623 30.74324952 16.88142776 33.02175426 C16.8834804 33.699877 16.88553303 34.37799973 16.88764787 35.07667163 C16.89331123 37.35347543 16.89186144 39.6302186 16.89044189 41.9070282 C16.89302591 43.5541374 16.89603917 45.20124598 16.8994453 46.84835368 C16.90751425 51.37838347 16.90930481 55.90839741 16.91004276 60.43843353 C16.9118935 65.32270411 16.91944093 70.20696647 16.92617798 75.0912323 C16.93976104 85.77308405 16.94578596 96.45493204 16.95018864 107.13679099 C16.95295108 113.80629605 16.95718843 120.47579965 16.96169281 127.14530373 C16.97388539 145.61040372 16.98418476 164.07550256 16.9875679 182.5406065 C16.98789725 184.31338641 16.98789725 184.31338641 16.98823325 186.12198006 C16.98845153 187.30666416 16.98866981 188.49134826 16.9888947 189.71193188 C16.98933817 192.11256071 16.98978473 194.51318953 16.99023438 196.91381836 C16.99056652 198.7000113 16.99056652 198.7000113 16.99090537 200.52228896 C16.99485346 219.81781435 17.01230788 239.11330198 17.0355939 258.40881278 C17.05930708 278.21813825 17.07176974 298.02744477 17.07293582 317.83678466 C17.07385259 328.95942956 17.0796055 340.08202525 17.09775543 351.2046566 C17.11315594 360.67577872 17.11827715 370.14683644 17.11001733 379.6179687 C17.10611069 384.4495516 17.1070412 389.28100478 17.12107468 394.11257172 C17.1338125 398.53856613 17.13261709 402.96433334 17.12048396 407.39032743 C17.11852677 408.98859783 17.12160645 410.58688431 17.13032833 412.18513211 C17.20045823 425.90873303 15.43207179 437.71128999 5.8984375 448.23046875 C-3.03466348 456.57633401 -12.57755585 458.60850828 -24.48828125 458.3984375 C-34.40185418 457.84253621 -42.89641476 453.14854355 -49.5625 445.8125 C-57.26390434 436.10574384 -58.54886579 425.8943382 -58.5284729 413.83630371 C-58.5342653 412.6044026 -58.5400577 411.3725015 -58.54602563 410.10327005 C-58.56004718 406.70081207 -58.56525271 403.29855067 -58.56667423 399.89607811 C-58.57037965 396.22063237 -58.58554079 392.54523142 -58.59928894 388.86981201 C-58.6215298 382.50750705 -58.63656214 376.14521808 -58.64665604 369.78288269 C-58.66126047 360.5840942 -58.68680224 351.38536147 -58.71498732 342.18660575 C-58.76042327 327.26113737 -58.79705129 312.33566094 -58.828125 297.41015625 C-58.85832364 282.91404814 -58.89267995 268.41795969 -58.93261719 253.921875 C-58.93507874 253.02787811 -58.93754028 252.13388123 -58.94007643 251.21279353 C-58.95245128 246.72773704 -58.96490777 242.24268078 -58.97740483 237.75762463 C-59.08092475 200.56761022 -59.17014379 163.37757238 -59.25 126.1875 C-62.48335031 129.39164005 -65.71091648 132.60154699 -68.9375 135.8125 C-69.84951172 136.71613281 -70.76152344 137.61976563 -71.70117188 138.55078125 C-76.11537243 142.94893017 -80.32331829 147.35233891 -84.25 152.1875 C-93.96761136 159.68394305 -105.0904914 162.66966495 -117.25 161.1875 C-127.5669515 158.53456961 -135.3379876 152.75702573 -141.42578125 144.08984375 C-147.31597899 133.80855671 -148.33758739 122.81890899 -145.25 111.3125 C-140.89832828 101.31832944 -132.90679223 93.45170562 -125.1875 86 C-119.89858803 80.84598901 -114.73167595 75.70398401 -109.92797852 70.0925293 C-106.44561118 66.13895555 -102.61745653 62.51645227 -98.85546875 58.83203125 C-95.70556225 55.72125402 -92.6711404 52.57390621 -89.78125 49.21875 C-85.51860087 44.27522778 -80.86799832 39.7553451 -76.2109375 35.1875 C-72.98641991 32.00033204 -69.85415726 28.79145652 -66.89453125 25.35546875 C-62.44856141 20.20187075 -57.71109236 15.3489829 -52.9375 10.5 C-52.05126953 9.57638672 -51.16503906 8.65277344 -50.25195312 7.70117188 C-35.7845092 -6.95621661 -18.3552871 -10.23660242 0 0 Z " fill="#FDFDFD" transform="translate(1248.25,554.8125)"/>
<path d="M0 0 C8.57068835 6.16726781 15.20618663 13.56863455 17.3125 24.25 C17.40614467 26.50637454 17.441621 28.76536015 17.44392776 31.02367592 C17.4459804 31.7073983 17.44803303 32.39112068 17.45014787 33.09556192 C17.45582352 35.39743565 17.45435992 37.69924965 17.45294189 40.00112915 C17.45552521 41.66387449 17.45853828 43.32661922 17.4619453 44.98936307 C17.47002259 49.56725847 17.47180527 54.14513819 17.47254276 58.72303987 C17.47439207 63.65708987 17.48193883 68.59113171 17.48867798 73.525177 C17.50226742 84.31865467 17.50828709 95.11212862 17.51268864 105.90561342 C17.51545026 112.64429459 17.51968749 119.38297432 17.52419281 126.12165451 C17.53638672 144.7762957 17.5466855 163.43093574 17.5500679 182.08558083 C17.55039725 183.87696909 17.55039725 183.87696909 17.55073325 185.70454701 C17.55095153 186.901679 17.55116981 188.098811 17.5513947 189.33221972 C17.55183817 191.75810091 17.55228473 194.18398209 17.55273438 196.60986328 C17.55306652 198.41484817 17.55306652 198.41484817 17.55340537 200.25629739 C17.55735297 219.75234851 17.57480528 239.24836223 17.5980939 258.74439891 C17.62180683 278.75709493 17.63426974 298.7697722 17.63543582 318.7824825 C17.63635266 330.02027826 17.64210718 341.25802531 17.66025543 352.49580765 C17.67565567 362.06576789 17.68077735 371.63566439 17.67251733 381.20563467 C17.66861045 386.08784177 17.6695423 390.9699205 17.68357468 395.85211182 C17.69631127 400.32440592 17.69511815 404.79647516 17.68298396 409.26876895 C17.68102655 410.88389279 17.68410749 412.49903255 17.69282833 414.11413403 C17.76082945 427.5629622 16.32083702 437.82206123 7.3125 448.25 C-0.16829053 455.63198764 -8.73975244 459.39108879 -19.25 459.6875 C-30.72520498 459.25344969 -39.0985376 455.38650147 -47.5078125 447.5546875 C-53.90474052 440.64343361 -56.81440693 432.23786348 -56.81054783 422.90269756 C-56.81253888 421.83727346 -56.81452993 420.77184936 -56.81658131 419.67413968 C-56.81366847 418.50974655 -56.81075563 417.34535343 -56.80775452 416.14567566 C-56.80860894 414.90408717 -56.80946337 413.66249868 -56.81034368 412.3832863 C-56.81170619 408.93988497 -56.80858017 405.49654046 -56.80356562 402.053146 C-56.79924787 398.3388161 -56.80070849 394.62448796 -56.8014679 390.91015625 C-56.80199229 384.47576163 -56.79885431 378.04137716 -56.79323006 371.60698509 C-56.78510363 362.30393027 -56.78249866 353.00088035 -56.78124207 343.69782237 C-56.77905335 328.60429091 -56.77239813 313.51076485 -56.76293945 298.41723633 C-56.75376069 283.75512723 -56.74668212 269.0930196 -56.74243164 254.4309082 C-56.74216892 253.52716216 -56.74190619 252.62341612 -56.74163551 251.69228383 C-56.74033047 247.15846342 -56.73906676 242.624643 -56.73782361 238.09082258 C-56.7274566 200.47721124 -56.70984317 162.86360604 -56.6875 125.25 C-57.95960577 126.34075458 -59.22851209 127.43524115 -60.49609375 128.53125 C-61.20306396 129.14033203 -61.91003418 129.74941406 -62.63842773 130.37695312 C-64.50018082 132.07877245 -66.13196652 133.81932663 -67.75 135.75 C-85.79749671 156.77099732 -85.79749671 156.77099732 -97.6875 160.25 C-98.28820313 160.44207031 -98.88890625 160.63414062 -99.5078125 160.83203125 C-108.61311202 162.57802955 -118.78541804 162.36497489 -126.6875 157.25 C-127.38230469 156.80269531 -128.07710937 156.35539062 -128.79296875 155.89453125 C-137.45196959 149.83485524 -142.88977381 142.54801341 -145.6875 132.25 C-147.04040174 121.03856209 -145.60106756 110.98681509 -138.56640625 101.96484375 C-134.76626188 97.1902907 -130.56173625 92.93262194 -126.1875 88.6875 C-121.39236633 84.00817009 -116.78407333 79.28466826 -112.41601562 74.20336914 C-108.90875856 70.23987144 -105.07215558 66.5957967 -101.29296875 62.89453125 C-98.14306225 59.78375402 -95.1086404 56.63640621 -92.21875 53.28125 C-87.95610087 48.33772778 -83.30549832 43.8178451 -78.6484375 39.25 C-74.67674924 35.32431586 -70.92160521 31.29347929 -67.27734375 27.0625 C-65.18650718 24.67884357 -62.95862315 22.46135675 -60.6875 20.25 C-57.67708097 17.28050812 -54.79558776 14.28854195 -52.0625 11.0625 C-38.53491019 -4.61936641 -18.74451401 -11.86201056 0 0 Z " fill="#FEFEFE" transform="translate(2058.6875,1365.75)"/>
<path d="M0 0 C2.5294124 3.21219857 4.56059467 6.5993695 6.625 10.125 C10.42751987 16.42065645 14.78745818 21.78745818 20 27 C20.74765625 27.74765625 21.4953125 28.4953125 22.265625 29.265625 C32.24404354 38.71538561 43.66724645 45.54110231 55.875 51.6875 C56.72288086 52.11466309 57.57076172 52.54182617 58.44433594 52.98193359 C72.39312633 59.82065032 86.8600029 65.22459078 101.625 70 C102.45061432 70.26913208 103.27622864 70.53826416 104.12686157 70.81555176 C122.361023 76.73402008 140.8436364 81.70236222 159.35302734 86.67578125 C175.70332413 91.07168264 191.94008152 95.62524331 208 101 C208.91974609 101.30309082 209.83949219 101.60618164 210.78710938 101.91845703 C225.66763401 106.87234639 241.85414264 112.8483618 249.37109375 127.7109375 C254.22116883 140.23050847 253.05147691 153.72788256 248 166 C245.98238853 169.64568409 243.68695797 172.82138589 241 176 C240.47664063 176.63421875 239.95328125 177.2684375 239.4140625 177.921875 C227.06763207 191.53306172 206.83846251 196.19806566 189.18725586 197.22094727 C185.10132839 197.33922345 181.02473299 197.38664789 176.9375 197.375 C176.21588684 197.37445618 175.49427368 197.37391235 174.75079346 197.37335205 C145.0853865 197.27090776 119.97992421 188.43856657 98.3125 167.6875 C91.05470308 160.23575351 86.35456973 152.16675742 82.125 142.75 C81.82625977 142.08846924 81.52751953 141.42693848 81.21972656 140.74536133 C79.38470897 136.47311062 78.46760845 132.62812467 78 128 C63.5153626 129.95974322 63.5153626 129.95974322 49.125 132.5 C41.81410834 133.92525464 34.48390566 134.88468455 27.09301758 135.79589844 C18.5853474 136.86664659 10.1502516 138.27042997 1.71679688 139.81811523 C0.28883789 140.07057007 0.28883789 140.07057007 -1.16796875 140.328125 C-2.42516724 140.55870605 -2.42516724 140.55870605 -3.70776367 140.79394531 C-6.07925231 141.00712418 -7.74576247 140.71954095 -10 140 C-9.83395264 139.46745605 -9.66790527 138.93491211 -9.49682617 138.38623047 C-3.80976695 120.05271384 -0.10995052 102.08456797 2 83 C2.09861328 82.1116748 2.19722656 81.22334961 2.29882812 80.30810547 C3.23476768 70.68105814 3.23854649 61.03857184 3.25 51.375 C3.25233643 50.47480133 3.25467285 49.57460266 3.25708008 48.64712524 C3.27107459 34.31976904 2.48285301 20.3703013 0.27539062 6.19018555 C0 4 0 4 0 0 Z " fill="#000000" transform="translate(1902,2490)"/>
<path d="M0 0 C1.8871875 0.0309375 1.8871875 0.0309375 3.8125 0.0625 C4.59519212 39.859384 -0.71173485 75.43613547 -28.80615234 105.72558594 C-43.13989605 120.56113488 -60.63369067 129.96785788 -80.1875 136.0625 C-80.909375 136.2898584 -81.63125 136.5172168 -82.375 136.75146484 C-105.29934106 143.60453647 -137.05880645 143.4249996 -158.8125 132.8125 C-172.46498002 125.24915426 -182.46465911 115.20044791 -187.1875 100.0625 C-187.41179687 99.37027344 -187.63609375 98.67804687 -187.8671875 97.96484375 C-191.05350206 86.28896506 -190.26492456 73.09276114 -184.78125 62.29296875 C-170.59587563 38.37187753 -144.75519546 28.72450516 -119.1875 22.0625 C-117.60932733 21.6381981 -116.03120063 21.21372517 -114.453125 20.7890625 C-95.10250408 15.68329382 -75.31283537 11.65734009 -55.4765625 8.99951172 C-54.7546875 8.9017041 -54.0328125 8.80389648 -53.2890625 8.703125 C-52.68400879 8.62610352 -52.07895508 8.54908203 -51.45556641 8.46972656 C-49.4309168 8.10620497 -47.43075789 7.61190371 -45.43823242 7.10083008 C-41.34313193 6.05828693 -37.25686435 5.38745437 -33.07421875 4.80859375 C-32.33798782 4.70281509 -31.6017569 4.59703644 -30.84321594 4.48805237 C-28.52101734 4.15477237 -26.19810438 3.82690174 -23.875 3.5 C-21.53412248 3.1690276 -19.19344784 2.83681246 -16.85322571 2.50123596 C-15.40455826 2.29363096 -13.95550264 2.08871222 -12.50602722 1.88682556 C-8.21939248 1.27411946 -4.33127279 -0.07100447 0 0 Z " fill="#000000" transform="translate(1369.1875,2553.9375)"/>
<path d="M0 0 C2.50898725 2.20475376 4.88987879 4.4773597 7.234375 6.85546875 C7.80929687 7.42007813 8.38421875 7.9846875 8.9765625 8.56640625 C19.77471434 20.03594577 21.91871151 34.20256252 21.6015625 49.2578125 C20.89001086 64.23319905 13.64412069 77.0880481 2.859375 87.29296875 C-8.07896528 96.30996578 -20.00351239 100.44742116 -34.078125 100.35546875 C-35.08705811 100.35047363 -36.09599121 100.34547852 -37.13549805 100.34033203 C-45.31295523 100.14965401 -51.51121587 98.79626449 -58.765625 94.85546875 C-59.63960937 94.42105469 -60.51359375 93.98664063 -61.4140625 93.5390625 C-74.94410949 86.23283712 -83.49383111 74.24767717 -88.27661133 59.8828125 C-92.44692118 45.68782151 -90.14836121 30.14552867 -83.203125 17.2265625 C-75.17704963 3.98790014 -63.76125114 -5.44724922 -48.9140625 -10.0234375 C-31.85614237 -13.62119941 -13.93535064 -10.80580155 0 0 Z " fill="#010101" transform="translate(2035.765625,820.14453125)"/>
<path d="M0 0 C0.79390137 0.00757324 1.58780273 0.01514648 2.40576172 0.02294922 C13.24761331 0.32676056 21.13604319 4.61017122 28.875 12.0625 C36.2337655 20.00996674 38.65035544 29.25072266 38.51953125 39.859375 C37.49929778 50.85389099 32.26722001 59.1603111 24.1875 66.4375 C15.83306087 73.18281564 5.77296949 75.52941089 -4.8125 74.4375 C-15.75134773 72.46653645 -24.43069834 66.4638696 -30.8125 57.4375 C-36.86140642 48.46367933 -37.42410549 37.91982286 -35.8125 27.4375 C-34.37889255 22.96578406 -32.46325323 19.29948257 -29.8125 15.4375 C-29.41804688 14.82777344 -29.02359375 14.21804688 -28.6171875 13.58984375 C-22.04686541 4.60734048 -10.8155496 -0.14439068 0 0 Z " fill="#010101" transform="translate(2000.8125,641.5625)"/>
<path d="M0 0 C3.59047418 2.39871002 6.33287841 4.96450883 7.91015625 9.046875 C8.77125682 14.65479248 8.04969797 19.37782639 5.23046875 24.31640625 C2.41601015 28.00517892 -0.79040385 29.66229969 -5.33203125 30.421875 C-10.72751384 30.71254073 -13.9037639 29.64885068 -18.08984375 26.046875 C-22.11216846 21.58970438 -23.47510167 18.25490591 -23.36328125 12.171875 C-22.68095729 6.86924305 -20.08954871 3.82664487 -15.96484375 0.609375 C-10.93984551 -1.87077435 -5.15420475 -2.35070273 0 0 Z " fill="#1F1F1F" transform="translate(1484.08984375,213.953125)"/>
<path d="M0 0 C4.62685186 2.2985006 7.30777877 5.54592502 8.94140625 10.33984375 C9.84305196 15.63701229 8.92247653 19.86823833 5.94140625 24.33984375 C2.0119388 28.3122562 -1.22388435 30.18945773 -6.87109375 30.65234375 C-11.26220369 30.58788709 -13.67014321 29.18922261 -17.05859375 26.33984375 C-21.08303925 21.88032307 -22.43659016 18.54873787 -22.3359375 12.46484375 C-21.68184073 7.45317275 -19.0494499 4.25992446 -15.43359375 0.90234375 C-10.31432003 -1.46769038 -5.40855908 -1.73443356 0 0 Z " fill="#1F1F1F" transform="translate(872.05859375,2098.66015625)"/>
<path d="M0 0 C5.27322153 1.82534591 7.79691086 4.60719203 11 9 C12.41114498 13.23343493 12.91699236 16.88143144 11.09375 21.09375 C8.47015761 25.60094718 5.83309116 28.76934254 1 31 C-4.35173038 31.93924336 -8.93997463 31.35474368 -13.4921875 28.31640625 C-17.04249599 25.21678459 -18.67944764 22.08524267 -19.37890625 17.53515625 C-19.64279911 11.87422886 -18.91970369 8.33230408 -15 4 C-10.20662513 -0.2360057 -6.14861504 -0.89575147 0 0 Z " fill="#1F1F1F" transform="translate(2707,1758)"/>
<path d="M0 0 C3.93504286 1.33975195 6.60986526 3.5798549 9.4375 6.625 C11.80753413 11.74427372 12.07427731 16.65003467 10.33984375 22.05859375 C8.39552311 25.97248595 5.83094338 28.43694116 1.9921875 30.33984375 C-1.71959506 31.5698266 -5.16229678 31.6933077 -9 31 C-13.9710149 28.46759618 -17.49430567 25.01138866 -20 20 C-20.56735892 15.34951706 -20.4598631 11.90269423 -18.3125 7.6875 C-12.75648083 1.23050475 -8.38170837 -0.97557589 0 0 Z " fill="#686868" transform="translate(2360,284)"/>
<path d="M0 0 C4.44283595 2.47773543 6.64509106 4.99777318 8.25 9.8125 C8.79225459 14.47944522 8.7198456 17.89021048 6.5625 22.125 C2.96165384 26.30976716 -0.30805649 29.62097502 -5.9375 30.0625 C-10.7641349 29.74599935 -14.69352354 28.8000739 -18.265625 25.34765625 C-22.07995888 20.86471787 -23.16800108 18.02008345 -23.09375 12.265625 C-22.50017479 8.02965649 -20.56289979 4.97422905 -17.75 1.8125 C-12.01376535 -2.2666002 -6.43244535 -2.03694103 0 0 Z " fill="#1F1F1F" transform="translate(539.75,258.1875)"/>
<path d="M0 0 C4.84115976 2.33092877 7.70301121 5.14098526 10 10 C10.77379561 15.29813119 10.67768515 19.56643525 8.375 24.4375 C4.25592051 28.88176997 1.13066792 31.22384379 -5 31.5 C-11.13066792 31.22384379 -14.25592051 28.88176997 -18.375 24.4375 C-20.67768515 19.56643525 -20.77379561 15.29813119 -20 10 C-15.9070522 1.34184119 -9.13540683 -1.45809425 0 0 Z " fill="#1F1F1F" transform="translate(1630,2082)"/>
<path d="M0 0 C3.13180809 1.62390049 5.24339744 3.00266026 7.375 5.8125 C8.72789093 10.54761825 8.5517493 13.91693656 6.3125 18.3125 C2.94192204 22.22965817 0.59843097 22.79656333 -4.4375 23.4375 C-9.1958924 22.85313602 -10.64663763 21.35336237 -14 18 C-15.74221711 14.51556578 -15.58675154 10.80112955 -15 7 C-11.50645578 0.69076343 -6.97014393 -0.94576302 0 0 Z " fill="#686868" transform="translate(2604,2070)"/>
<path d="M0 0 C4.85582947 0.06949309 7.47853082 1.66178625 11.0625 4.875 C12.93587786 8.62175571 13.02902557 12.15657475 12.25 16.25 C10.53095248 19.31881816 8.44285833 21.65357084 5.25 23.25 C0.51822808 23.64431433 -1.84400722 23.70299639 -6.125 21.5625 C-8.97019739 19.05601659 -9.99543686 17.93897534 -10.75 14.25 C-10.90337676 9.53366466 -10.36233099 6.96948891 -7.25 3.3125 C-6.425 2.631875 -5.6 1.95125 -4.75 1.25 C-3.75 0.25 -3.75 0.25 0 0 Z " fill="#686868" transform="translate(2821.75,1427.75)"/>
<path d="M0 0 C3.28446622 2.68119691 4.69192268 4.10565222 5.3671875 8.2578125 C5.49047337 12.40843692 5.17286444 15.39135588 3 19 C-0.46086463 21.85012381 -3.51719663 22.5335801 -8.00390625 22.35546875 C-12.06926667 21.63150046 -14.9224266 19.42043766 -17.375 16.1875 C-18.58825516 11.94110695 -18.54873781 8.3413591 -16.875 4.25 C-12.28996157 -1.25204612 -6.59797087 -2.14676626 0 0 Z " fill="#686868" transform="translate(573,2228)"/>
<path d="M0 0 C4.03748531 2.0935109 6.35107136 3.76542739 8 8 C8.33797952 12.84437312 7.65229503 16.17604838 4.625 20 C0.4735512 23.16300861 -2.86674084 23.52202636 -8 23 C-10.97551795 21.22396702 -13.42755188 19.14489623 -15 16 C-15.53118173 12.20584481 -15.85089348 8.53668822 -13.953125 5.109375 C-9.85432031 0.14258814 -6.29838853 -0.85461406 0 0 Z " fill="#686868" transform="translate(359,798)"/>
<path d="M0 0 C2.70552388 2.19823815 4.44778333 3.89556667 6 7 C6.37766377 12.00404498 6.11200434 14.99885156 3 19 C0.47450701 21.81689603 -1.71884281 22.2730238 -5.375 22.5 C-8.81427659 22.3921679 -10.80530532 21.84195396 -13.5 19.6875 C-16.43092306 16.53675771 -16.91246868 14.92783194 -17.3125 10.6875 C-16.94050629 6.2979742 -15.80652364 4.35223657 -13 1 C-8.6995967 -1.70465616 -4.77583488 -1.34506579 0 0 Z " fill="#696969" transform="translate(389,299)"/>
<path d="M0 0 C3.70390021 2.02666238 5.65363011 3.48044516 8 7 C8.6820176 10.76904461 8.83098707 14.45628171 6.984375 17.88671875 C4.84357352 20.5498242 3.25941392 21.91352869 0 23 C-5.70624783 23.53832527 -8.5555466 22.61757835 -13 19 C-15.10081332 15.84878002 -15.53041608 13.89550991 -15.4609375 10.13671875 C-14.61684071 6.22382939 -11.9177214 3.60780798 -9 1 C-5.89046621 -0.5547669 -3.43733239 -0.28644437 0 0 Z " fill="#696969" transform="translate(3177,1628)"/>
<path d="M0 0 C3.33163575 0.70637352 5.09110679 1.96626467 7.33984375 4.49609375 C9.64337569 8.29811705 9.56108382 10.99842273 8.9296875 15.3046875 C7.94700978 18.955563 6.45630576 20.41845241 3.33984375 22.49609375 C-1.42450495 23.97892051 -4.58566407 24.02357173 -9.09765625 21.80859375 C-12.91765758 18.36127548 -13.48850675 16.80492122 -14.16015625 11.68359375 C-14.01650341 7.42987357 -12.57077426 4.83057135 -9.640625 1.7890625 C-6.4738962 -0.27836794 -3.70050078 -0.27266848 0 0 Z " fill="#686868" transform="translate(477.66015625,1427.50390625)"/>
<path d="M0 0 C3.70390021 2.02666238 5.65363011 3.48044516 8 7 C8.6820176 10.76904461 8.83098707 14.45628171 6.984375 17.88671875 C4.84357352 20.5498242 3.25941392 21.91352869 0 23 C-5.70624783 23.53832527 -8.5555466 22.61757835 -13 19 C-15.10081332 15.84878002 -15.53041608 13.89550991 -15.4609375 10.13671875 C-14.61684071 6.22382939 -11.9177214 3.60780798 -9 1 C-5.89046621 -0.5547669 -3.43733239 -0.28644437 0 0 Z " fill="#686868" transform="translate(2598,1095)"/>
<path d="M0 0 C4.7693662 1.41314554 4.7693662 1.41314554 6.375 4 C7.3125 6.875 7.3125 6.875 7.375 10 C5.43173841 13.49787086 4.2109715 14.73875891 0.375 15.9375 C-2.75658696 16.0027414 -4.10306604 15.8013814 -6.625 14 C-8.97049674 10.48175489 -9.20491403 9.14224306 -8.625 5 C-5.91953265 1.14675862 -4.77773264 0 0 0 Z " fill="#1E1E1E" transform="translate(576.625,2010)"/>
<path d="M0 0 C4.99268902 1.47931526 4.99268902 1.47931526 6.375 4 C6.76809578 7.09562931 6.99838668 9.04336605 6.375 12 C4.3125 14.5625 4.3125 14.5625 1.375 16 C-2.4387751 16 -4.64924548 15.84985071 -7.5625 13.3125 C-8.9863395 10.2135552 -9.17653827 8.37817188 -8.625 5 C-5.91953265 1.14675862 -4.77773264 0 0 0 Z " fill="#666666" transform="translate(22.625,1382)"/>
<path d="M0 0 C1.9375 1.0625 1.9375 1.0625 3 3 C3.39309578 6.09562931 3.62338668 8.04336605 3 11 C0.9375 13.5625 0.9375 13.5625 -2 15 C-5.625 15.0625 -5.625 15.0625 -9 14 C-11.79612568 11.02911646 -12.00789609 9.45797334 -11.9375 5.375 C-11 2 -11 2 -9.375 0 C-5.91616747 -1.45635054 -3.58701629 -0.91305869 0 0 Z " fill="#666666" transform="translate(91,1083)"/>
<path d="M0 0 C2.55078958 2.22165544 2.93332671 3.60829443 3.5 6.9375 C3 10 3 10 0.9375 12.9375 C-2 15 -2 15 -5.625 15 C-10.61768902 13.52068474 -10.61768902 13.52068474 -12 11 C-12.39309578 7.90437069 -12.62338668 5.95663395 -12 3 C-8.38525112 -1.49105164 -5.37641793 -1.59301272 0 0 Z " fill="#1E1E1E" transform="translate(1101,252)"/>
<path d="M0 0 C2.9375 2.0625 2.9375 2.0625 5 5 C5 8.51955419 4.63108355 10.84920059 2.9375 13.9375 C-0.25902171 15.69043126 -3.44932174 15.51780725 -7 15 C-9 14 -9 14 -10 12 C-10.75912409 5.16788321 -10.75912409 5.16788321 -8.375 1.5 C-5.23686002 -0.48198314 -3.65126535 -0.67064058 0 0 Z " fill="#676767" transform="translate(1433,2176)"/>
<path d="M0 0 C2.375 1.5 2.375 1.5 4 4 C4.6293407 7.51440821 4.63147635 10.7370473 3 14 C-0.26556715 15.63278358 -3.48305406 15.6227188 -7 15 C-9.5 13.4375 -9.5 13.4375 -11 11 C-11.5625 7.5 -11.5625 7.5 -11 4 C-7.69532025 0.20933794 -4.96286146 -0.84474238 0 0 Z " fill="#676767" transform="translate(3061,1034)"/>
<path d="M0 0 C2.9375 2.0625 2.9375 2.0625 5 5 C5 8.54361243 4.65850044 10.86591591 2.875 13.9375 C-0.14771101 15.65036957 -2.60585305 15.35727863 -6 15 C-8.4375 14 -8.4375 14 -10 12 C-10.5659239 7.54334931 -10.82483134 5.26897129 -8.375 1.5 C-5.23686002 -0.48198314 -3.65126535 -0.67064058 0 0 Z " fill="#1F1F1F" transform="translate(480,1678)"/>
<path d="M0 0 C5.125 1.28125 5.125 1.28125 7 4 C7.4304064 7.37151684 7.37492611 9.30638669 5.75 12.3125 C4 14 4 14 0 15 C0 10.05 0 5.1 0 0 Z " fill="#0B0B0B" transform="translate(1471,2471)"/>
</svg>
